<?xml version="1.0" encoding="UTF-8" standalone="no"?>
<!-- Created with Inkscape (http://www.inkscape.org/) -->

<svg
   version="1.1"
   id="svg1"
   width="865.27997"
   height="488"
   viewBox="0 0 865.27997 488"
   xmlns="http://www.w3.org/2000/svg"
   xmlns:svg="http://www.w3.org/2000/svg">
  <defs
     id="defs1">
    <clipPath
       clipPathUnits="userSpaceOnUse"
       id="clipPath4">
      <path
         d="m -1142.1099,308.89204 h 904.11587 v 511.88912 h -904.11587 z"
         clip-rule="evenodd"
         id="path4" />
    </clipPath>
    <clipPath
       clipPathUnits="userSpaceOnUse"
       id="clipPath8">
      <path
         d="M 0,0 H 865.59996 V 488.31998 H 0 Z"
         clip-rule="evenodd"
         id="path8" />
    </clipPath>
  </defs>
  <g
     id="g1">
    <g
       id="g2"
       clip-path="url(#clipPath8)">
      <path
         id="path2"
         d="M 0,0 H 866 V 489 H 0 Z"
         style="fill:#ffffff;fill-opacity:1;fill-rule:nonzero;stroke:none" />
      <path
         id="path3"
         d="m -545,411 v 79 h -237 v 105.63"
         style="fill:none;stroke:#000000;stroke-width:1;stroke-linecap:butt;stroke-linejoin:miter;stroke-miterlimit:10;stroke-dasharray:none;stroke-opacity:1"
         transform="matrix(0.90253916,0,0,0.90253916,1055.7989,-265.78716)"
         clip-path="url(#clipPath4)" />
      <path
         id="path5"
         d="m -782,600.88 -3.5,-7 3.5,1.75 3.5,-1.75 z"
         style="fill:#000000;fill-opacity:1;fill-rule:nonzero;stroke:#000000;stroke-width:1;stroke-linecap:butt;stroke-linejoin:miter;stroke-miterlimit:10;stroke-dasharray:none;stroke-opacity:1"
         transform="matrix(0.90253916,0,0,0.90253916,1055.7989,-265.78716)"
         clip-path="url(#clipPath4)" />
      <path
         id="path6"
         d="m -545,411 v 79 h 185 v 53.63"
         style="fill:none;stroke:#000000;stroke-width:1;stroke-linecap:butt;stroke-linejoin:miter;stroke-miterlimit:10;stroke-dasharray:none;stroke-opacity:1"
         transform="matrix(0.90253916,0,0,0.90253916,1055.7989,-265.78716)"
         clip-path="url(#clipPath4)" />
      <path
         id="path7"
         d="m -360,548.88 -3.5,-7 3.5,1.75 3.5,-1.75 z"
         style="fill:#000000;fill-opacity:1;fill-rule:nonzero;stroke:#000000;stroke-width:1;stroke-linecap:butt;stroke-linejoin:miter;stroke-miterlimit:10;stroke-dasharray:none;stroke-opacity:1"
         transform="matrix(0.90253916,0,0,0.90253916,1055.7989,-265.78716)"
         clip-path="url(#clipPath4)" />
    </g>
    <g
       id="g8">
      <path
         id="path9"
         d="m -513,478 h 141 v 27 h -141 z"
         style="fill:#ffffff;fill-opacity:1;fill-rule:nonzero;stroke:none"
         transform="matrix(0.90253916,0,0,0.90253916,1055.3476,-266.23843)" />
    </g>
    <g
       id="g9">
      <text
         id="text9"
         xml:space="preserve"
         transform="matrix(0.90253916,0,0,0.90253916,592.24629,174.20068)"><tspan
           id="tspan9"
           style="font-variant:normal;font-weight:normal;font-size:11px;font-family:Arial;writing-mode:lr-tb;fill:#000000;fill-opacity:1;fill-rule:nonzero;stroke:none"
           x="0"
           y="0">Positive / Negative examples</tspan></text>
    </g>
    <g
       id="g10">
      <text
         id="text10"
         xml:space="preserve"
         transform="matrix(0.90253916,0,0,0.90253916,635.00409,186.83623)"><tspan
           id="tspan10"
           style="font-variant:normal;font-weight:normal;font-size:11px;font-family:Arial;writing-mode:lr-tb;fill:#000000;fill-opacity:1;fill-rule:nonzero;stroke:none"
           x="0"
           y="0">per query</tspan></text>
    </g>
    <path
       id="path10"
       d="m -610,324 c 0,-17.32999 130,-17.32999 130,0 v 74 c 0,17.32999 -130,17.32999 -130,0 z"
       style="fill:#ffffff;fill-opacity:1;fill-rule:nonzero;stroke:#000000;stroke-width:1;stroke-linecap:butt;stroke-linejoin:miter;stroke-miterlimit:10;stroke-dasharray:none;stroke-opacity:1"
       transform="matrix(0.90253916,0,0,0.90253916,1055.7989,-265.78716)" />
    <path
       id="path11"
       d="m -610,324 c 0,13 130,13 130,0 m -130,6.5 c 0,13 130,13 130,0 m -130,6.5 c 0,13 130,13 130,0"
       style="fill:none;stroke:#000000;stroke-width:1;stroke-linecap:butt;stroke-linejoin:miter;stroke-miterlimit:10;stroke-dasharray:none;stroke-opacity:1"
       transform="matrix(0.90253916,0,0,0.90253916,1055.7989,-265.78716)" />
    <g
       id="g11">
      <text
         id="text11"
         xml:space="preserve"
         transform="matrix(0.90253916,0,0,0.90253916,543.59379,59.57821)"><tspan
           id="tspan11"
           style="font-variant:normal;font-weight:700;font-size:12px;font-family:Arial;writing-mode:lr-tb;fill:#000000;fill-opacity:1;fill-rule:nonzero;stroke:none"
           x="0"
           y="0">RELISH</tspan></text>
    </g>
    <g
       id="g12">
      <text
         id="text12"
         xml:space="preserve"
         transform="matrix(0.90253916,0,0,0.90253916,524.61227,72.213759)"><tspan
           id="tspan12"
           style="font-variant:normal;font-weight:normal;font-size:12px;font-family:Arial;writing-mode:lr-tb;fill:#000000;fill-opacity:1;fill-rule:nonzero;stroke:none"
           x="0"
           y="0">query document</tspan></text>
    </g>
    <g
       id="g13">
      <text
         id="text13"
         xml:space="preserve"
         transform="matrix(0.90253916,0,0,0.90253916,556.68061,85.751846)"><tspan
           id="tspan13"
           style="font-variant:normal;font-weight:normal;font-size:12px;font-family:Arial;writing-mode:lr-tb;fill:#000000;fill-opacity:1;fill-rule:nonzero;stroke:none"
           x="0"
           y="0">--&gt;</tspan></text>
    </g>
    <g
       id="g14">
      <text
         id="text14"
         xml:space="preserve"
         transform="matrix(0.90253916,0,0,0.90253916,516.19327,98.387394)"><tspan
           id="tspan14"
           style="font-variant:normal;font-weight:normal;font-size:12px;font-family:Arial;writing-mode:lr-tb;fill:#000000;fill-opacity:1;fill-rule:nonzero;stroke:none"
           x="0"
           y="0">relevant documents</tspan></text>
    </g>
    <path
       id="path14"
       d="m -720,371 v 20 h 40 v 13.63"
       style="fill:none;stroke:#000000;stroke-width:1;stroke-linecap:butt;stroke-linejoin:miter;stroke-miterlimit:10;stroke-dasharray:none;stroke-opacity:1"
       transform="matrix(0.90253916,0,0,0.90253916,1055.7989,-265.78716)" />
    <path
       id="path15"
       d="m -680,409.88 -3.5,-7 3.5,1.75 3.5,-1.75 z"
       style="fill:#000000;fill-opacity:1;fill-rule:nonzero;stroke:#000000;stroke-width:1;stroke-linecap:butt;stroke-linejoin:miter;stroke-miterlimit:10;stroke-dasharray:none;stroke-opacity:1"
       transform="matrix(0.90253916,0,0,0.90253916,1055.7989,-265.78716)" />
    <path
       id="path16"
       d="m -810,319 c 0,-10.67001 180,-10.67001 180,0 v 44 c 0,10.67001 -180,10.67001 -180,0 z"
       style="fill:#ffffff;fill-opacity:1;fill-rule:nonzero;stroke:#000000;stroke-width:1;stroke-linecap:butt;stroke-linejoin:miter;stroke-miterlimit:10;stroke-dasharray:none;stroke-opacity:1"
       transform="matrix(0.90253916,0,0,0.90253916,1055.7989,-265.78716)" />
    <path
       id="path17"
       d="m -810,319 c 0,8 180,8 180,0 m -180,4 c 0,8 180,8 180,0 m -180,4 c 0,8 180,8 180,0"
       style="fill:none;stroke:#000000;stroke-width:1;stroke-linecap:butt;stroke-linejoin:miter;stroke-miterlimit:10;stroke-dasharray:none;stroke-opacity:1"
       transform="matrix(0.90253916,0,0,0.90253916,1055.7989,-265.78716)" />
    <g
       id="g17">
      <text
         id="text17"
         xml:space="preserve"
         transform="matrix(0.90253916,0,0,0.90253916,372.4075,47.845201)"><tspan
           id="tspan17"
           style="font-variant:normal;font-weight:700;font-size:12px;font-family:Arial;writing-mode:lr-tb;fill:#000000;fill-opacity:1;fill-rule:nonzero;stroke:none"
           x="0"
           y="0">SciDocs Cite</tspan></text>
    </g>
    <g
       id="g18">
      <text
         id="text18"
         xml:space="preserve"
         transform="matrix(0.90253916,0,0,0.90253916,331.46888,61.383289)"><tspan
           id="tspan18"
           style="font-variant:normal;font-weight:normal;font-size:12px;font-family:Arial;writing-mode:lr-tb;fill:#000000;fill-opacity:1;fill-rule:nonzero;stroke:none"
           x="0"
           y="0">citation query-pos.-neg. triplets</tspan></text>
    </g>
    <path
       id="path18"
       d="m -705.5,411 h 51 c 0.5968,0 1.17084,0.11417 1.72217,0.3425 0.55133,0.22836 1.0379,0.5535 1.45984,0.97546 0.42199,0.42194 0.74719,0.90857 0.97552,1.4599 0.22833,0.55133 0.34253,1.12537 0.34247,1.72214 v 21 c 6e-5,0.59671 -0.11414,1.17072 -0.34247,1.72205 -0.22833,0.5513 -0.55353,1.03796 -0.97552,1.45993 -0.42194,0.4219 -0.90851,0.74707 -1.45984,0.97543 -0.55133,0.22836 -1.12537,0.34256 -1.72217,0.34259 h -51 c -0.59668,-3e-5 -1.17065,-0.11423 -1.72198,-0.34259 -0.55127,-0.22836 -1.03791,-0.55353 -1.4599,-0.97543 -0.42194,-0.42197 -0.74708,-0.90863 -0.97547,-1.45993 -0.22833,-0.55133 -0.34259,-1.12534 -0.34265,-1.72205 v -21 c 6e-5,-0.59677 0.11432,-1.17081 0.34265,-1.72214 0.22839,-0.55133 0.55353,-1.03796 0.97547,-1.4599 0.42199,-0.42196 0.90863,-0.7471 1.4599,-0.97546 0.55133,-0.22833 1.1253,-0.3425 1.72198,-0.3425 z"
       style="fill:#ffffff;fill-opacity:1;fill-rule:nonzero;stroke:#000000;stroke-width:1;stroke-linecap:butt;stroke-linejoin:miter;stroke-miterlimit:10;stroke-dasharray:none;stroke-opacity:1"
       transform="matrix(0.90253916,0,0,0.90253916,1055.7989,-265.78716)" />
    <g
       id="g19">
      <text
         id="text19"
         xml:space="preserve"
         transform="matrix(0.90253916,0,0,0.90253916,431.58023,121.85341)"><tspan
           id="tspan19"
           style="font-style:italic;font-variant:normal;font-weight:normal;font-size:12px;font-family:Arial;writing-mode:lr-tb;fill:#000000;fill-opacity:1;fill-rule:nonzero;stroke:none"
           x="0"
           dx="0 -1.1015625"
           y="0">Test</tspan></text>
    </g>
    <path
       id="path19"
       d="m -784.5,411 h 51 c 0.59674,0 1.17084,0.11417 1.72217,0.3425 0.55133,0.22836 1.0379,0.5535 1.45984,0.97546 0.42199,0.42194 0.74719,0.90857 0.97552,1.4599 0.2284,0.55133 0.34253,1.12537 0.34247,1.72214 v 21 c 6e-5,0.59671 -0.11407,1.17072 -0.34241,1.72205 -0.22839,0.5513 -0.55359,1.03796 -0.97558,1.45993 -0.42194,0.4219 -0.90851,0.74707 -1.45984,0.97543 -0.55133,0.22836 -1.12543,0.34256 -1.72217,0.34259 h -51 c -0.59674,-3e-5 -1.17072,-0.11423 -1.72198,-0.34259 -0.55134,-0.22836 -1.03797,-0.55353 -1.45997,-0.97543 -0.42187,-0.42197 -0.74701,-0.90863 -0.9754,-1.45993 -0.22839,-0.55133 -0.34259,-1.12534 -0.34265,-1.72205 v -21 c 6e-5,-0.59677 0.11426,-1.17081 0.34265,-1.72214 0.22839,-0.55133 0.55353,-1.03796 0.9754,-1.4599 0.422,-0.42196 0.90863,-0.7471 1.45997,-0.97546 0.55126,-0.22833 1.12524,-0.3425 1.72198,-0.3425 z"
       style="fill:#ffffff;fill-opacity:1;fill-rule:nonzero;stroke:#000000;stroke-width:1;stroke-linecap:butt;stroke-linejoin:miter;stroke-miterlimit:10;stroke-dasharray:none;stroke-opacity:1"
       transform="matrix(0.90253916,0,0,0.90253916,1055.7989,-265.78716)" />
    <g
       id="g20">
      <text
         id="text20"
         xml:space="preserve"
         transform="matrix(0.90253916,0,0,0.90253916,358.37583,121.85341)"><tspan
           id="tspan20"
           style="font-style:italic;font-variant:normal;font-weight:normal;font-size:12px;font-family:Arial;writing-mode:lr-tb;fill:#000000;fill-opacity:1;fill-rule:nonzero;stroke:none"
           x="0"
           dx="0 -0.890625"
           y="0">Train</tspan></text>
    </g>
    <path
       id="path20"
       d="m -720,371 v 20 h -39 v 13.63"
       style="fill:none;stroke:#000000;stroke-width:1;stroke-linecap:butt;stroke-linejoin:miter;stroke-miterlimit:10;stroke-dasharray:none;stroke-opacity:1"
       transform="matrix(0.90253916,0,0,0.90253916,1055.7989,-265.78716)" />
    <path
       id="path21"
       d="m -759,409.88 -3.5,-7 3.5,1.75 3.5,-1.75 z"
       style="fill:#000000;fill-opacity:1;fill-rule:nonzero;stroke:#000000;stroke-width:1;stroke-linecap:butt;stroke-linejoin:miter;stroke-miterlimit:10;stroke-dasharray:none;stroke-opacity:1"
       transform="matrix(0.90253916,0,0,0.90253916,1055.7989,-265.78716)" />
    <path
       id="path22"
       d="m -960,747 h 70 V 642 h 31.63"
       style="fill:none;stroke:#000000;stroke-width:1;stroke-linecap:butt;stroke-linejoin:miter;stroke-miterlimit:10;stroke-dasharray:none;stroke-opacity:1"
       transform="matrix(0.90253916,0,0,0.90253916,1055.7989,-265.78716)" />
    <path
       id="path23"
       d="m -853.12,642 -7,3.5 1.75,-3.5 -1.75,-3.5 z"
       style="fill:#000000;fill-opacity:1;fill-rule:nonzero;stroke:#000000;stroke-width:1;stroke-linecap:butt;stroke-linejoin:miter;stroke-miterlimit:10;stroke-dasharray:none;stroke-opacity:1"
       transform="matrix(0.90253916,0,0,0.90253916,1055.7989,-265.78716)" />
    <g
       id="g23">
      <path
         id="path24"
         d="m -930,685 h 103 v 13 h -103 z"
         style="fill:#ffffff;fill-opacity:1;fill-rule:nonzero;stroke:none"
         transform="matrix(0.90253916,0,0,0.90253916,1055.3476,-266.23843)" />
    </g>
    <g
       id="g24">
      <text
         id="text24"
         xml:space="preserve"
         transform="matrix(0.90253916,0,0,0.90253916,215.74644,361.02629)"><tspan
           id="tspan24"
           style="font-variant:normal;font-weight:normal;font-size:11px;font-family:Arial;writing-mode:lr-tb;fill:#000000;fill-opacity:1;fill-rule:nonzero;stroke:none"
           x="0"
           dx="0 -0.40820304"
           y="0">Transformer Encoder</tspan></text>
    </g>
    <path
       id="path25"
       d="m -960,736 v 44 h 70 v 30 h 470 v -16.71997"
       style="fill:none;stroke:#000000;stroke-width:1;stroke-linecap:butt;stroke-linejoin:miter;stroke-miterlimit:10;stroke-dasharray:none;stroke-opacity:1"
       transform="matrix(0.90253916,0,0,0.90253916,1055.7989,-265.78716)" />
    <path
       id="path26"
       d="m -420,788.03003 3.5,7 -3.5,-1.75 -3.5,1.75 z"
       style="fill:#000000;fill-opacity:1;fill-rule:nonzero;stroke:#000000;stroke-width:1;stroke-linecap:butt;stroke-linejoin:miter;stroke-miterlimit:10;stroke-dasharray:none;stroke-opacity:1"
       transform="matrix(0.90253916,0,0,0.90253916,1055.7989,-265.78716)" />
    <g
       id="g26">
      <path
         id="path27"
         d="m -806,804 h 153 v 13 h -153 z"
         style="fill:#ffffff;fill-opacity:1;fill-rule:nonzero;stroke:none"
         transform="matrix(0.90253916,0,0,0.90253916,1055.3476,-266.23843)" />
    </g>
    <g
       id="g27">
      <text
         id="text27"
         xml:space="preserve"
         transform="matrix(0.90253916,0,0,0.90253916,327.97155,468.42845)"><tspan
           id="tspan27"
           style="font-variant:normal;font-weight:normal;font-size:11px;font-family:Arial;writing-mode:lr-tb;fill:#000000;fill-opacity:1;fill-rule:nonzero;stroke:none"
           x="0"
           y="0">Cross-Encoder Re-Rank model</tspan></text>
    </g>
    <path
       id="path28"
       d="m -1100,683 v -23 h 140 v 23"
       style="fill:#ffffff;fill-opacity:1;fill-rule:nonzero;stroke:#000000;stroke-width:1;stroke-linecap:butt;stroke-linejoin:miter;stroke-miterlimit:10;stroke-dasharray:none;stroke-opacity:1"
       transform="matrix(0.90253916,0,0,0.90253916,1055.7989,-265.78716)" />
    <path
       id="path29"
       d="m -1100,683 v 129 h 140 V 683"
       style="fill:none;stroke:#000000;stroke-width:1;stroke-linecap:butt;stroke-linejoin:miter;stroke-miterlimit:10;stroke-dasharray:none;stroke-opacity:1"
       transform="matrix(0.90253916,0,0,0.90253916,1055.7989,-265.78716)" />
    <path
       id="path30"
       d="m -1100,683 h 140"
       style="fill:none;stroke:#000000;stroke-width:1;stroke-linecap:butt;stroke-linejoin:miter;stroke-miterlimit:10;stroke-dasharray:none;stroke-opacity:1"
       transform="matrix(0.90253916,0,0,0.90253916,1055.7989,-265.78716)" />
    <g
       id="g30">
      <text
         id="text30"
         xml:space="preserve"
         transform="matrix(0.90253916,0,0,0.90253916,72.172208,343.87805)"><tspan
           id="tspan30"
           style="font-variant:normal;font-weight:700;font-size:12px;font-family:Arial;writing-mode:lr-tb;fill:#000000;fill-opacity:1;fill-rule:nonzero;stroke:none"
           x="0"
           dx="0 0 0 0 0 0 0 -0.66210949"
           y="0">(Pre)-Trained Models</tspan></text>
    </g>
    <g
       id="g31">
      <text
         id="text31"
         xml:space="preserve"
         transform="matrix(0.90253916,0,0,0.90253916,100.60219,371.85676)"><tspan
           id="tspan31"
           style="font-variant:normal;font-weight:normal;font-size:12px;font-family:Arial;writing-mode:lr-tb;fill:#000000;fill-opacity:1;fill-rule:nonzero;stroke:none"
           x="0"
           y="0">SPECTER</tspan></text>
    </g>
    <g
       id="g32">
      <text
         id="text32"
         xml:space="preserve"
         transform="matrix(0.90253916,0,0,0.90253916,102.50598,390.81008)"><tspan
           id="tspan32"
           style="font-variant:normal;font-weight:normal;font-size:12px;font-family:Arial;writing-mode:lr-tb;fill:#000000;fill-opacity:1;fill-rule:nonzero;stroke:none"
           x="0"
           dx="0 0 0 0 0 -0.21679692 -1.3300781"
           y="0">RoBERTa</tspan></text>
    </g>
    <g
       id="g33">
      <text
         id="text33"
         xml:space="preserve"
         transform="matrix(0.90253916,0,0,0.90253916,86.753857,451.28021)"><tspan
           id="tspan33"
           style="font-variant:normal;font-weight:normal;font-size:12px;font-family:Arial;writing-mode:lr-tb;fill:#000000;fill-opacity:1;fill-rule:nonzero;stroke:none"
           x="0"
           dx="0 -0.44531247 0 0 0 0 0 -0.21679692 -0.66210926"
           y="0">TinyBERT-L2-v2</tspan></text>
    </g>
    <g
       id="g34">
      <text
         id="text34"
         xml:space="preserve"
         transform="matrix(0.90253916,0,0,0.90253916,104.31106,408.86087)"><tspan
           id="tspan34"
           style="font-variant:normal;font-weight:normal;font-size:12px;font-family:Arial;writing-mode:lr-tb;fill:#000000;fill-opacity:1;fill-rule:nonzero;stroke:none"
           x="0"
           dx="0 0 0 0 0 0 -0.21679711"
           y="0">SciBERT</tspan></text>
    </g>
    <path
       id="path34"
       d="m -610,620 v 80.63"
       style="fill:none;stroke:#000000;stroke-width:1;stroke-linecap:butt;stroke-linejoin:miter;stroke-miterlimit:10;stroke-dasharray:none;stroke-opacity:1"
       transform="matrix(0.90253916,0,0,0.90253916,1055.7989,-265.78716)" />
    <path
       id="path35"
       d="m -610,705.88 -3.5,-7 3.5,1.75 3.5,-1.75 z"
       style="fill:#000000;fill-opacity:1;fill-rule:nonzero;stroke:#000000;stroke-width:1;stroke-linecap:butt;stroke-linejoin:miter;stroke-miterlimit:10;stroke-dasharray:none;stroke-opacity:1"
       transform="matrix(0.90253916,0,0,0.90253916,1055.7989,-265.78716)" />
    <g
       id="g35">
      <path
         id="path36"
         d="m -653,645 h 91 v 27 h -91 z"
         style="fill:#ffffff;fill-opacity:1;fill-rule:nonzero;stroke:none"
         transform="matrix(0.90253916,0,0,0.90253916,1055.3476,-266.23843)" />
    </g>
    <g
       id="g36">
      <text
         id="text36"
         xml:space="preserve"
         transform="matrix(0.90253916,0,0,0.90253916,466.22926,324.92472)"><tspan
           id="tspan36"
           style="font-variant:normal;font-weight:normal;font-size:11px;font-family:Arial;writing-mode:lr-tb;fill:#000000;fill-opacity:1;fill-rule:nonzero;stroke:none"
           x="0"
           y="0">Similarity Measure</tspan></text>
    </g>
    <g
       id="g37">
      <text
         id="text37"
         xml:space="preserve"
         transform="matrix(0.90253916,0,0,0.90253916,472.01115,337.56027)"><tspan
           id="tspan37"
           style="font-style:italic;font-variant:normal;font-weight:normal;font-size:11px;font-family:Arial;writing-mode:lr-tb;fill:#000000;fill-opacity:1;fill-rule:nonzero;stroke:none"
           x="0"
           y="0">cosine similarity</tspan></text>
    </g>
    <path
       id="path37"
       d="m -660,568 c 0,-10.66998 100,-10.66998 100,0 v 44 c 0,10.66998 -100,10.66998 -100,0 z"
       style="fill:#ffffff;fill-opacity:1;fill-rule:nonzero;stroke:#000000;stroke-width:1;stroke-linecap:butt;stroke-linejoin:miter;stroke-miterlimit:10;stroke-dasharray:none;stroke-opacity:1"
       transform="matrix(0.90253916,0,0,0.90253916,1055.7989,-265.78716)" />
    <path
       id="path38"
       d="m -660,568 c 0,8 100,8 100,0 m -100,4 c 0,8 100,8 100,0 m -100,4 c 0,8 100,8 100,0"
       style="fill:none;stroke:#000000;stroke-width:1;stroke-linecap:butt;stroke-linejoin:miter;stroke-miterlimit:10;stroke-dasharray:none;stroke-opacity:1"
       transform="matrix(0.90253916,0,0,0.90253916,1055.7989,-265.78716)" />
    <g
       id="g38">
      <text
         id="text38"
         xml:space="preserve"
         transform="matrix(0.90253916,0,0,0.90253916,464.74854,272.57745)"><tspan
           id="tspan38"
           style="font-variant:normal;font-weight:normal;font-size:12px;font-family:Arial;writing-mode:lr-tb;fill:#000000;fill-opacity:1;fill-rule:nonzero;stroke:none"
           x="0"
           dx="0 -0.66210938"
           y="0">Vector Database</tspan></text>
    </g>
    <g
       id="g39">
      <text
         id="text39"
         xml:space="preserve"
         transform="matrix(0.90253916,0,0,0.90253916,489.13119,286.11554)"><tspan
           id="tspan39"
           style="font-variant:normal;font-weight:700;font-size:12px;font-family:Arial;writing-mode:lr-tb;fill:#000000;fill-opacity:1;fill-rule:nonzero;stroke:none"
           x="0"
           dx="0 -0.66210926"
           y="0">FAISS</tspan></text>
    </g>
    <path
       id="path39"
       d="m -782,682 v 65 h 105.63"
       style="fill:none;stroke:#000000;stroke-width:1;stroke-linecap:butt;stroke-linejoin:miter;stroke-miterlimit:10;stroke-dasharray:none;stroke-opacity:1"
       transform="matrix(0.90253916,0,0,0.90253916,1055.7989,-265.78716)" />
    <path
       id="path40"
       d="m -671.12,747 -7,3.5 1.75,-3.5 -1.75,-3.5 z"
       style="fill:#000000;fill-opacity:1;fill-rule:nonzero;stroke:#000000;stroke-width:1;stroke-linecap:butt;stroke-linejoin:miter;stroke-miterlimit:10;stroke-dasharray:none;stroke-opacity:1"
       transform="matrix(0.90253916,0,0,0.90253916,1055.7989,-265.78716)" />
    <g
       id="g40">
      <path
         id="path41"
         d="m -772,741 h 77 v 13 h -77 z"
         style="fill:#ffffff;fill-opacity:1;fill-rule:nonzero;stroke:none"
         transform="matrix(0.90253916,0,0,0.90253916,1055.3476,-266.23843)" />
    </g>
    <g
       id="g41">
      <text
         id="text41"
         xml:space="preserve"
         transform="matrix(0.90253916,0,0,0.90253916,358.29122,411.56848)"><tspan
           id="tspan41"
           style="font-variant:normal;font-weight:normal;font-size:11px;font-family:Arial;writing-mode:lr-tb;fill:#000000;fill-opacity:1;fill-rule:nonzero;stroke:none"
           x="0"
           y="0">Query encoding</tspan></text>
    </g>
    <path
       id="path42"
       d="m -712,642 h 26 v -52 h 19.63"
       style="fill:none;stroke:#000000;stroke-width:1;stroke-linecap:butt;stroke-linejoin:miter;stroke-miterlimit:10;stroke-dasharray:none;stroke-opacity:1"
       transform="matrix(0.90253916,0,0,0.90253916,1055.7989,-265.78716)" />
    <path
       id="path43"
       d="m -661.12,590 -7,3.5 1.75,-3.5 -1.75,-3.5 z"
       style="fill:#000000;fill-opacity:1;fill-rule:nonzero;stroke:#000000;stroke-width:1;stroke-linecap:butt;stroke-linejoin:miter;stroke-miterlimit:10;stroke-dasharray:none;stroke-opacity:1"
       transform="matrix(0.90253916,0,0,0.90253916,1055.7989,-265.78716)" />
    <path
       id="path44"
       d="m -712,642 c -6e-5,1.31012 -0.11243,2.617 -0.3371,3.92072 -0.22467,1.30371 -0.56067,2.59796 -1.00787,3.88281 -0.44727,1.28491 -1.00366,2.5542 -1.66925,3.8078 -0.66547,1.25366 -1.43683,2.48565 -2.31415,3.69592 -0.87738,1.21033 -1.85644,2.39319 -2.93707,3.54852 -1.08075,1.1554 -2.25794,2.27771 -3.53156,3.36695 -1.27374,1.08935 -2.63788,2.14032 -4.09228,3.15295 -1.45441,1.01276 -2.99213,1.98224 -4.61316,2.90857 -1.62116,0.92633 -3.31775,1.80505 -5.08991,2.63611 -1.77215,0.83111 -3.61132,1.61053 -5.51751,2.33832 -1.90631,0.7279 -3.87036,1.40063 -5.89222,2.01812 -2.02191,0.61756 -4.09185,1.17701 -6.2099,1.67829 -2.1181,0.50134 -4.27404,0.94214 -6.46795,1.32245 -2.19385,0.38031 -4.41504,0.69824 -6.66358,0.95379 -2.24859,0.25562 -4.51367,0.44764 -6.79522,0.57605 C -777.42029,681.93579 -779.7074,682 -782,682 c -2.2926,0 -4.57965,-0.0642 -6.86121,-0.19263 -2.28155,-0.12841 -4.54657,-0.32043 -6.79504,-0.57605 -2.24854,-0.25555 -4.46973,-0.57348 -6.66357,-0.95379 -2.19391,-0.38031 -4.34986,-0.82111 -6.4679,-1.32245 -2.1181,-0.50128 -4.18811,-1.06073 -6.21002,-1.67829 -2.02185,-0.61749 -3.9859,-1.29022 -5.89215,-2.01812 -1.90619,-0.72779 -3.74542,-1.50721 -5.5177,-2.33832 -1.77216,-0.83106 -3.46881,-1.70978 -5.08985,-2.63611 -1.62115,-0.92633 -3.15893,-1.89581 -4.61334,-2.90857 -1.45441,-1.01263 -2.81842,-2.0636 -4.09204,-3.15295 -1.27368,-1.08924 -2.45087,-2.21155 -3.53156,-3.36695 -1.08074,-1.15533 -2.05975,-2.33819 -2.93707,-3.54852 -0.87738,-1.21027 -1.6488,-2.44226 -2.31433,-3.69586 -0.66547,-1.25366 -1.22186,-2.52295 -1.66913,-3.80786 -0.44732,-1.28485 -0.78332,-2.5791 -1.00799,-3.88281 -0.22467,-1.30372 -0.33704,-2.6106 -0.3371,-3.92072 6e-5,-1.31006 0.11243,-2.61694 0.33716,-3.92065 0.22467,-1.30378 0.56067,-2.59809 1.00799,-3.883 0.44721,-1.28485 1.0036,-2.55414 1.66907,-3.8078 0.66553,-1.2536 1.43695,-2.4856 2.31433,-3.69598 0.87732,-1.21033 1.85633,-2.39313 2.93701,-3.54847 1.08075,-1.15539 2.25794,-2.27771 3.53156,-3.367 1.27362,-1.08929 2.63769,-2.14026 4.0921,-3.15289 1.45441,-1.01264 2.99219,-1.98218 4.61334,-2.90857 1.62104,-0.92633 3.31769,-1.80506 5.08991,-2.63617 1.77222,-0.83106 3.61145,-1.61054 5.51764,-2.33838 1.90625,-0.72785 3.8703,-1.40051 5.89221,-2.01801 2.02191,-0.61761 4.09186,-1.17706 6.20996,-1.67834 2.11804,-0.50128 4.27399,-0.94208 6.4679,-1.32239 2.19384,-0.38025 4.41503,-0.69818 6.66357,-0.9538 2.24847,-0.25555 4.51349,-0.44751 6.79504,-0.57592 2.28156,-0.12836 4.56861,-0.19257 6.86121,-0.19263 2.2926,6e-5 4.57971,0.0643 6.86127,0.19263 2.28155,0.12841 4.54663,0.32037 6.79522,0.57592 2.24854,0.25562 4.46973,0.57355 6.66358,0.9538 2.19391,0.38031 4.34985,0.82111 6.46795,1.32239 2.11805,0.50128 4.18799,1.06073 6.2099,1.67828 2.02186,0.61756 3.98591,1.29022 5.89216,2.01807 1.90618,0.72784 3.74536,1.50732 5.51757,2.33844 1.77216,0.83105 3.46875,1.70978 5.08991,2.63611 1.62103,0.92639 3.15875,1.89593 4.61316,2.90857 1.4544,1.01263 2.81848,2.0636 4.09222,3.15289 1.27362,1.08929 2.45081,2.21161 3.53156,3.367 1.08069,1.15534 2.05975,2.33814 2.93713,3.54847 0.87732,1.21038 1.64868,2.44238 2.31415,3.69598 0.66559,1.25366 1.22198,2.52295 1.66925,3.8078 0.4472,1.28491 0.7832,2.57922 1.00787,3.883 0.22467,1.30371 0.33704,2.61059 0.3371,3.92065 z"
       style="fill:#ffffff;fill-opacity:1;fill-rule:nonzero;stroke:#000000;stroke-width:1;stroke-linecap:butt;stroke-linejoin:miter;stroke-miterlimit:10;stroke-dasharray:none;stroke-opacity:1"
       transform="matrix(0.90253916,0,0,0.90253916,1055.7989,-265.78716)" />
    <g
       id="g44">
      <g
         id="g45" />
      <text
         id="text45"
         xml:space="preserve"
         transform="matrix(0.90253916,0,0,0.90253916,294.76093,310.4841)"><tspan
           id="tspan45"
           style="font-variant:normal;font-weight:normal;font-size:12px;font-family:Arial;writing-mode:lr-tb;fill:#000000;fill-opacity:1;fill-rule:nonzero;stroke:none"
           x="0"
           y="0">Encode all documents </tspan></text>
    </g>
    <g
       id="g46">
      <text
         id="text46"
         xml:space="preserve"
         transform="matrix(0.90253916,0,0,0.90253916,293.56224,324.02218)"><tspan
           id="tspan46"
           style="font-variant:normal;font-weight:normal;font-size:12px;font-family:Arial;writing-mode:lr-tb;fill:#000000;fill-opacity:1;fill-rule:nonzero;stroke:none"
           x="0"
           y="0">into vector embeddings</tspan></text>
    </g>
    <path
       id="path46"
       d="m -550,746.5 h 3 v 1 h -3 m 6,-1 h 3 v 1 h -3 m 6,-1 h 3 v 1 h -3 m 6,-1 h 3 v 1 h -3 m 6,-1 h 3 v 1 h -3 m 6,-1 h 3 v 1 h -3 m 6,-1 h 3 v 1 h -3 m 6,-1 h 1.63 v 1 H -508"
       style="fill:#000000;fill-opacity:1;fill-rule:nonzero;stroke:none"
       transform="matrix(0.90253916,0,0,0.90253916,1055.7989,-265.78716)" />
    <path
       id="path47"
       d="m -501.12,747 -7,3.5 1.75,-3.5 -1.75,-3.5 z"
       style="fill:#000000;fill-opacity:1;fill-rule:nonzero;stroke:#000000;stroke-width:1;stroke-linecap:butt;stroke-linejoin:miter;stroke-miterlimit:10;stroke-dasharray:none;stroke-opacity:1"
       transform="matrix(0.90253916,0,0,0.90253916,1055.7989,-265.78716)" />
    <path
       id="path48"
       d="m -550,747 h 20 v -67 h 150 v -40.63"
       style="fill:none;stroke:#000000;stroke-width:1;stroke-linecap:butt;stroke-linejoin:miter;stroke-miterlimit:10;stroke-dasharray:none;stroke-opacity:1"
       transform="matrix(0.90253916,0,0,0.90253916,1055.7989,-265.78716)" />
    <path
       id="path49"
       d="m -380,634.12 3.5,7 -3.5,-1.75 -3.5,1.75 z"
       style="fill:#000000;fill-opacity:1;fill-rule:nonzero;stroke:#000000;stroke-width:1;stroke-linecap:butt;stroke-linejoin:miter;stroke-miterlimit:10;stroke-dasharray:none;stroke-opacity:1"
       transform="matrix(0.90253916,0,0,0.90253916,1055.7989,-265.78716)" />
    <path
       id="path50"
       d="m -550,747 c 0,1.31012 -0.0963,2.617 -0.28894,3.92072 -0.19257,1.30371 -0.48053,2.59796 -0.86389,3.88281 -0.38336,1.28491 -0.86029,2.5542 -1.43073,3.8078 -0.57043,1.25366 -1.23163,2.48565 -1.98358,3.69592 -0.75207,1.21033 -1.59125,2.39319 -2.51758,3.54852 -0.92633,1.1554 -1.93536,2.27771 -3.02704,3.36695 -1.09173,1.08929 -2.26098,2.14032 -3.50762,3.15295 -1.24665,1.0127 -2.5647,1.98224 -3.95417,2.90857 -1.38952,0.92633 -2.84381,1.80505 -4.36285,2.63617 -1.51898,0.83105 -3.0954,1.61047 -4.72925,2.33832 -1.63391,0.72784 -3.31738,1.40057 -5.05041,2.01806 -1.7331,0.61756 -3.50733,1.17701 -5.32282,1.67829 -1.81549,0.50134 -3.66351,0.94214 -5.54401,1.32245 -1.88043,0.38031 -3.78436,0.69824 -5.71167,0.95379 -1.9273,0.25562 -3.86877,0.44764 -5.8244,0.57605 C -606.07458,786.93579 -608.03497,787 -610,787 c -1.96503,0 -3.92542,-0.0642 -5.88104,-0.19263 -1.95563,-0.12841 -3.89704,-0.32043 -5.82434,-0.57605 -1.92731,-0.25555 -3.83124,-0.57348 -5.71167,-0.95379 -1.88044,-0.38031 -3.72834,-0.82111 -5.54383,-1.32245 -1.81549,-0.50128 -3.58978,-1.06073 -5.32287,-1.67829 -1.73297,-0.61755 -3.41645,-1.29028 -5.05036,-2.01812 -1.63397,-0.72779 -3.21045,-1.50721 -4.72949,-2.33832 -1.51898,-0.83106 -2.97327,-1.70978 -4.36273,-2.63611 -1.38959,-0.92633 -2.70764,-1.89587 -3.95422,-2.90857 -1.24665,-1.01263 -2.41584,-2.06366 -3.50751,-3.15295 -1.0918,-1.08924 -2.10089,-2.21155 -3.02722,-3.36695 -0.92633,-1.15533 -1.76545,-2.33819 -2.5174,-3.54852 -0.75201,-1.21027 -1.41327,-2.44226 -1.9837,-3.69586 -0.5705,-1.25366 -1.04737,-2.52295 -1.43067,-3.80786 -0.38336,-1.28485 -0.67138,-2.5791 -0.86407,-3.88281 C -669.90369,749.617 -670,748.31012 -670,747 c 0,-1.31 0.0963,-2.61688 0.28888,-3.92065 0.19269,-1.30372 0.48071,-2.59803 0.86407,-3.883 0.3833,-1.28485 0.86017,-2.55414 1.43067,-3.8078 0.57043,-1.2536 1.23169,-2.4856 1.9837,-3.69598 0.75195,-1.21033 1.59113,-2.39319 2.51746,-3.54853 0.92633,-1.15533 1.93536,-2.27765 3.02716,-3.36688 1.09167,-1.08929 2.2608,-2.14026 3.50744,-3.15289 1.24665,-1.01264 2.5647,-1.98218 3.95429,-2.90857 1.38946,-0.92633 2.84375,-1.80499 4.36279,-2.63611 1.51898,-0.83105 3.09546,-1.61053 4.72943,-2.33838 1.63391,-0.72784 3.31739,-1.40051 5.05036,-2.01807 1.73309,-0.61755 3.50738,-1.177 5.32287,-1.67834 1.81549,-0.50128 3.66346,-0.94208 5.54389,-1.32239 1.88043,-0.38031 3.7843,-0.6983 5.71161,-0.95386 1.9273,-0.25549 3.86871,-0.44744 5.82434,-0.57586 1.95562,-0.12836 3.91601,-0.19263 5.88104,-0.19269 1.96503,6e-5 3.92542,0.0643 5.88104,0.19269 1.95563,0.12842 3.8971,0.32043 5.8244,0.57599 1.92731,0.25555 3.83124,0.57348 5.71167,0.95373 1.8805,0.38031 3.72852,0.82111 5.54401,1.32239 1.81549,0.50134 3.58972,1.06079 5.32275,1.67834 1.7331,0.61756 3.41657,1.29023 5.05048,2.01807 1.63385,0.72785 3.21027,1.50733 4.72925,2.33838 1.51904,0.83112 2.97333,1.70978 4.36285,2.63611 1.38947,0.92639 2.70752,1.89587 3.95417,2.90851 1.24664,1.01263 2.41589,2.0636 3.50762,3.15289 1.09168,1.08923 2.10071,2.21155 3.02704,3.367 0.92633,1.15534 1.76551,2.33814 2.51758,3.54847 0.75195,1.21038 1.41315,2.44238 1.98358,3.69598 0.57044,1.25366 1.04737,2.52289 1.43073,3.80774 0.38336,1.28497 0.67132,2.57928 0.86389,3.88306 C -550.09631,744.38312 -550,745.69 -550,747 Z"
       style="fill:#ffffff;fill-opacity:1;fill-rule:nonzero;stroke:#000000;stroke-width:1;stroke-linecap:butt;stroke-linejoin:miter;stroke-miterlimit:10;stroke-dasharray:none;stroke-opacity:1"
       transform="matrix(0.90253916,0,0,0.90253916,1055.7989,-265.78716)" />
    <g
       id="g50">
      <text
         id="text50"
         xml:space="preserve"
         transform="matrix(0.90253916,0,0,0.90253916,482.51728,398.93294)"><tspan
           id="tspan50"
           style="font-variant:normal;font-weight:normal;font-size:12px;font-family:Arial;writing-mode:lr-tb;fill:#000000;fill-opacity:1;fill-rule:nonzero;stroke:none"
           x="0"
           y="0">Get top-k</tspan></text>
      <text
         id="text51"
         xml:space="preserve"
         transform="matrix(0.90253916,0,0,0.90253916,455.427,411.56848)"><tspan
           id="tspan51"
           style="font-variant:normal;font-weight:normal;font-size:12px;font-family:Arial;writing-mode:lr-tb;fill:#000000;fill-opacity:1;fill-rule:nonzero;stroke:none"
           x="0"
           y="0">approximate nearest</tspan></text>
      <text
         id="text52"
         xml:space="preserve"
         transform="matrix(0.90253916,0,0,0.90253916,477.99048,425.10657)"><tspan
           id="tspan52"
           style="font-variant:normal;font-weight:normal;font-size:12px;font-family:Arial;writing-mode:lr-tb;fill:#000000;fill-opacity:1;fill-rule:nonzero;stroke:none"
           x="0"
           y="0">neighbours</tspan></text>
    </g>
    <path
       id="path52"
       d="m -350,746.5 h 3 v 1 h -3 z m 6,0 h 3 v 1 h -3 z m 6,0 h 3 v 1 h -3 z m 6,0 h 2 v 0.5 h -0.5 v -1 h 1 v 1.5 h -2.5 z m 1.5,-3.5 v -3 h 1 v 3 z m 0,-6 v -3 h 1 v 3 z m 0,-6 v -3 h 1 v 3 z m 0,-6 v -3 h 1 v 3 z m 0,-6 v -3 h 1 v 3 z m 0,-6 v -3 h 1 v 3 z m 0,-6 v -3 h 1 v 3 z m 0,-6 v -3 h 1 v 3 z m 0,-6 v -3 h 1 v 3 z m 0,-6 v -3 h 1 v 3 z m 0,-6 v -3 h 1 v 3 z m -2.5,-2.5 h -3 v -1 h 3 z m -6,0 h -3 v -1 h 3 z m -6,0 h -3 v -1 h 3 z m -6,0 h -3 v -1 h 3 z m -6,0 h -3 v -1 h 3 z m -6,0 h -3 v -1 h 3 z m -6,0 h -3 v -1 h 3 z m -6,0 h -3 v -1 h 3 z m -5.5,-1.5 v -3 h 1 v 3 z m 0,-6 v -3 h 1 v 3 z m 0,-6 v -3 h 1 v 3 z m 0,-6 v -3 h 1 v 3 z m 0,-6 v -3 h 1 v 3 z m 0,-6 v -3 h 1 v 3 z m 0,-6 v -3 h 1 v 3 z"
       style="fill:#000000;fill-opacity:1;fill-rule:nonzero;stroke:none"
       transform="matrix(0.90253916,0,0,0.90253916,1055.7989,-265.78716)" />
    <path
       id="path53"
       d="m -380,634.12 3.5,7 -3.5,-1.75 -3.5,1.75 z"
       style="fill:#000000;fill-opacity:1;fill-rule:nonzero;stroke:#000000;stroke-width:1;stroke-linecap:butt;stroke-linejoin:miter;stroke-miterlimit:10;stroke-dasharray:none;stroke-opacity:1"
       transform="matrix(0.90253916,0,0,0.90253916,1055.7989,-265.78716)" />
    <path
       id="path54"
       d="m -350,747 c 0,1.31012 -0.12039,2.617 -0.36115,3.92072 -0.24075,1.30371 -0.6007,2.59796 -1.07989,3.88281 -0.47922,1.28491 -1.07535,2.5542 -1.78839,3.8078 -0.71304,1.25366 -1.53958,2.48565 -2.47955,3.69592 -0.94001,1.21033 -1.98896,2.39319 -3.14685,3.54852 -1.15793,1.1554 -2.41922,2.27771 -3.78388,3.36695 -1.36472,1.08929 -2.8262,2.14032 -4.38449,3.15295 -1.55829,1.0127 -3.20587,1.98224 -4.94275,2.90857 -1.73691,0.92633 -3.55478,1.80505 -5.45355,2.63617 -1.89877,0.83105 -3.86933,1.61047 -5.91168,2.33832 -2.04239,0.72784 -4.14676,1.40057 -6.31305,2.01806 -2.16632,0.61756 -4.38416,1.17701 -6.65348,1.67829 -2.26937,0.50134 -4.57934,0.94214 -6.9299,1.32245 -2.35058,0.38031 -4.73044,0.69824 -7.13958,0.95379 -2.40915,0.25562 -4.83597,0.44764 -7.28052,0.57605 C -420.09323,786.93579 -422.54367,787 -425,787 c -2.45633,0 -4.90677,-0.0642 -7.35129,-0.19263 -2.44449,-0.12841 -4.87131,-0.32043 -7.28042,-0.57605 -2.40915,-0.25555 -4.78904,-0.57348 -7.13959,-0.95379 -2.35056,-0.38031 -4.66052,-0.82111 -6.92987,-1.32245 -2.26938,-0.50128 -4.48722,-1.06073 -6.65351,-1.67829 -2.16629,-0.61755 -4.27063,-1.29028 -6.31298,-2.01812 -2.04239,-0.72779 -4.013,-1.50721 -5.91178,-2.33832 -1.8988,-0.83106 -3.71664,-1.70978 -5.45352,-2.63611 -1.73691,-0.92633 -3.38449,-1.89587 -4.94278,-2.90857 -1.55826,-1.01263 -3.01971,-2.06366 -4.38437,-3.15295 -1.36468,-1.08924 -2.62597,-2.21155 -3.7839,-3.36695 -1.1579,-1.15533 -2.20685,-2.33819 -3.14685,-3.54852 -0.94004,-1.21027 -1.76657,-2.44226 -2.47962,-3.69586 -0.71304,-1.25366 -1.30914,-2.52295 -1.78836,-3.80786 -0.47922,-1.28485 -0.83923,-2.5791 -1.07998,-3.88281 C -499.87961,749.617 -500,748.31012 -500,747 c 0,-1.31 0.12039,-2.61688 0.36118,-3.92065 0.24075,-1.30372 0.60076,-2.59803 1.07998,-3.883 0.47922,-1.28485 1.07532,-2.55414 1.78836,-3.8078 0.71305,-1.2536 1.53958,-2.4856 2.47962,-3.69598 0.94,-1.21033 1.98895,-2.39319 3.14685,-3.54853 1.15793,-1.15533 2.41922,-2.27765 3.7839,-3.36688 1.36466,-1.08929 2.82611,-2.14026 4.38437,-3.15289 1.55829,-1.01264 3.20587,-1.98218 4.94278,-2.90857 1.73688,-0.92633 3.55472,-1.80499 5.45349,-2.63611 1.89881,-0.83105 3.86942,-1.61053 5.91181,-2.33838 2.04235,-0.72784 4.14669,-1.40051 6.31298,-2.01807 2.16629,-0.61755 4.38413,-1.177 6.65351,-1.67834 2.26935,-0.50128 4.57931,-0.94208 6.92987,-1.32239 2.35055,-0.38031 4.73044,-0.6983 7.13959,-0.95386 2.40911,-0.25549 4.83593,-0.44744 7.28042,-0.57586 2.44452,-0.12836 4.89496,-0.19263 7.35129,-0.19269 2.45633,6e-5 4.90677,0.0643 7.35129,0.19269 2.44455,0.12842 4.8714,0.32043 7.28055,0.57599 2.40911,0.25555 4.78897,0.57348 7.13952,0.95373 2.35059,0.38031 4.66059,0.82111 6.92996,1.32239 2.26935,0.50134 4.48719,1.06079 6.65348,1.67834 2.16629,0.61756 4.27063,1.29023 6.31302,2.01807 2.04235,0.72785 4.01291,1.50733 5.91168,2.33838 1.89877,0.83112 3.71664,1.70978 5.45355,2.63611 1.73688,0.92639 3.38446,1.89587 4.94275,2.90851 1.55829,1.01263 3.01977,2.0636 4.38449,3.15289 1.36466,1.08923 2.62592,2.21155 3.78384,3.367 1.15793,1.15534 2.20688,2.33814 3.14689,3.54847 0.93997,1.21038 1.76651,2.44238 2.47955,3.69598 0.71304,1.25366 1.30917,2.52289 1.78839,3.80774 0.47919,1.28497 0.83914,2.57928 1.07989,3.88306 C -350.12039,744.38312 -350,745.69 -350,747 Z"
       style="fill:#ffffff;fill-opacity:1;fill-rule:nonzero;stroke:none"
       transform="matrix(0.90253916,0,0,0.90253916,1055.7989,-265.78716)" />
    <path
       id="path55"
       d="m -350.33554,753.02289 c -0.26874,0.96307 -0.6015,1.91949 -0.99829,2.86926 l -0.92273,-0.3855 c 0.38092,-0.9118 0.70019,-1.82928 0.95782,-2.75256 z m -2.30783,5.56598 c -0.50211,0.90533 -1.06238,1.79986 -1.68076,2.68359 l -0.81933,-0.57336 c 0.59857,-0.85541 1.14044,-1.72046 1.62558,-2.59522 z m -3.4921,5.04309 c -0.62484,0.74627 -1.29123,1.48157 -1.99914,2.20593 l -0.71515,-0.69897 c 0.69003,-0.70606 1.3392,-1.42237 1.94757,-2.14893 z m -4.26343,4.35974 c -0.75619,0.67053 -1.54812,1.32873 -2.37579,1.97455 l -0.61517,-0.78833 c 0.81106,-0.63288 1.58688,-1.27771 2.32751,-1.93439 z m -4.72509,3.70721 c -0.81418,0.56818 -1.65586,1.12427 -2.525,1.66828 l -0.53058,-0.84766 c 0.85523,-0.53534 1.68299,-1.08221 2.48331,-1.64068 z m -5.21653,3.26477 c -0.87332,0.49103 -1.76922,0.97004 -2.68771,1.43689 l -0.45312,-0.89148 c 0.90585,-0.46044 1.78942,-0.9328 2.65072,-1.41711 z m -5.34136,2.72309 c -0.90116,0.41632 -1.8209,0.82129 -2.75919,1.2149 l -0.38684,-0.92212 c 0.92612,-0.38849 1.83499,-0.78869 2.72659,-1.20062 z m -5.61399,2.35522 c -0.95505,0.36298 -1.92581,0.71399 -2.91235,1.0531 l -0.32507,-0.94568 c 0.97561,-0.33538 1.93637,-0.6828 2.8822,-1.04223 z m -5.73633,1.97754 c -0.94937,0.29566 -1.90942,0.57984 -2.88015,0.85254 l -0.27045,-0.96277 c 0.96359,-0.27069 1.91467,-0.55218 2.85324,-0.84448 z m -5.80731,1.63208 c -0.97827,0.2464 -1.96646,0.48163 -2.96457,0.70569 l -0.21899,-0.97571 c 0.9888,-0.22192 1.96857,-0.45514 2.9393,-0.69971 z m -5.93771,1.33362 c -0.98364,0.19488 -1.9744,0.37878 -2.97223,0.55164 l -0.17072,-0.98536 c 0.99021,-0.17157 1.97306,-0.35394 2.94861,-0.54724 z m -5.95468,1.03198 c -0.99039,0.14771 -1.98517,0.28443 -2.98432,0.41016 l -0.12487,-0.99219 c 0.99331,-0.125 1.98056,-0.26068 2.96166,-0.40698 z m -5.96265,0.7511 c -1.00946,0.10431 -2.02405,0.19757 -3.04373,0.27979 l -0.0804,-0.99671 c 1.00924,-0.0814 2.01635,-0.17401 3.02139,-0.27783 l 0.10272,0.99475 z m -6.08548,0.49158 c -1.00143,0.0588 -2.00552,0.10669 -3.0123,0.14386 l -0.0369,-0.99927 c 0.99762,-0.0368 1.99447,-0.0845 2.99057,-0.14288 l 0.0586,0.99829 z m -5.98801,0.22241 c -0.74374,0.0118 -1.48773,0.0177 -2.23196,0.0177 h -0.0234 l -0.67929,-0.002 0.003,-1 0.67678,0.002 h 0.0234 c 0.7388,0 1.47748,-0.006 2.21609,-0.0176 l 0.0159,0.99988 z m -5.89025,-0.0297 c -1.0001,-0.026 -1.99808,-0.0626 -2.99402,-0.10968 l 0.0472,-0.99891 c 0.99026,0.0469 1.9812,0.0832 2.97278,0.10895 l -0.026,0.99964 z m -6.02134,-0.28589 c -1.02047,-0.0705 -2.03833,-0.15222 -3.05362,-0.24524 l 0.0913,-0.99585 c 1.00678,0.0922 2.01721,0.17334 3.03128,0.24341 l -0.0689,0.99768 z m -6.057,-0.55384 c -0.99897,-0.11389 -1.99305,-0.23858 -2.98224,-0.37408 l 0.13574,-0.99072 c 0.98203,0.13452 1.96863,0.2583 2.95978,0.37127 z m -5.96668,-0.81781 c -0.99954,-0.16058 -1.99237,-0.33209 -2.97851,-0.51458 l 0.18194,-0.98328 c 0.97843,0.18103 1.96347,0.3512 2.9552,0.51056 z m -5.94299,-1.1007 c -1.00144,-0.211 -1.99463,-0.43341 -2.97955,-0.6673 l 0.23101,-0.9729 c 0.97544,0.23163 1.96033,0.45215 2.95472,0.66168 z m -5.9274,-1.40857 c -0.97995,-0.26044 -1.94846,-0.53199 -2.90558,-0.81458 l 0.28314,-0.95911 c 0.94922,0.28022 1.909,0.54932 2.87934,0.80726 z m -5.75995,-1.70191 c -0.965,-0.31531 -1.91653,-0.64215 -2.85455,-0.98047 l 0.33929,-0.94067 c 0.92795,0.33466 1.86991,0.6582 2.82587,0.97058 z m -5.75485,-2.08081 c -0.95429,-0.38043 -1.89099,-0.77258 -2.81012,-1.17657 l 0.4024,-0.91553 c 0.90888,0.39947 1.83487,0.78723 2.77802,1.16315 z m -5.51975,-2.42633 c -0.8862,-0.42877 -1.75268,-0.86847 -2.59951,-1.31903 l 0.46972,-0.88281 c 0.83582,0.4447 1.69092,0.8786 2.56534,1.30169 z m -5.36587,-2.87152 c -0.89816,-0.53155 -1.76907,-1.0755 -2.61273,-1.6319 l 0.55053,-0.83484 c 0.83048,0.54767 1.68763,1.08307 2.57148,1.60614 z m -5.05426,-3.33203 c -0.79453,-0.58478 -1.55951,-1.18091 -2.29501,-1.78833 l 0.63678,-0.771 c 0.72039,0.59497 1.47073,1.17963 2.251,1.75391 z m -4.69452,-3.9101 c -0.75351,-0.7149 -1.46597,-1.44171 -2.13739,-2.18054 l 0.74005,-0.67248 c 0.65439,0.72009 1.34958,1.42926 2.08563,2.12756 z m -4.00763,-4.40661 c -0.65433,-0.84625 -1.25449,-1.70349 -1.80041,-2.57166 l 0.84655,-0.53235 c 0.5289,0.84107 1.11054,1.67182 1.74494,2.49231 z m -3.30182,-5.26422 c -0.43497,-0.89148 -0.81296,-1.7901 -1.13391,-2.69593 l 0.94257,-0.33398 c 0.30832,0.87006 0.67166,1.73389 1.09008,2.59143 z m -1.99142,-5.73938 c -0.21036,-1.0022 -0.35105,-2.00745 -0.42212,-3.01581 l 0.9975,-0.0703 c 0.0678,0.96258 0.2023,1.92285 0.40332,2.88067 l -0.9787,0.20545 z m -0.42978,-5.97638 c 0.0657,-1.00739 0.20099,-2.0119 0.40579,-3.01343 l 0.97974,0.20032 c -0.19568,0.95703 -0.32489,1.91644 -0.38767,2.87817 l -0.99786,-0.0651 z m 1.25119,-6.07044 c 0.31643,-0.90552 0.68985,-1.80401 1.12021,-2.69555 l 0.90057,0.43469 c -0.41379,0.85724 -0.7727,1.72088 -1.07675,2.59082 z m 2.60742,-5.38861 c 0.54477,-0.87396 1.14432,-1.73681 1.79861,-2.58844 l 0.79297,0.60925 c -0.63452,0.82593 -1.21551,1.66199 -1.74295,2.50812 z m 3.65854,-4.81604 c 0.66778,-0.73907 1.37686,-1.46655 2.12726,-2.18249 l 0.6903,0.72351 c -0.73239,0.69879 -1.42425,1.40857 -2.07556,2.12939 z m 4.51691,-4.30664 c 0.73715,-0.612 1.50439,-1.21265 2.30166,-1.80194 l 0.59442,0.8042 c -0.78268,0.57849 -1.53512,1.16754 -2.25735,1.76715 z m 4.73648,-3.50452 c 0.84185,-0.55743 1.71066,-1.10229 2.60638,-1.63464 l 0.51086,0.85962 c -0.88198,0.52417 -1.73703,1.06042 -2.56518,1.60876 z m 5.37423,-3.19409 c 0.84668,-0.45221 1.7132,-0.89349 2.59955,-1.32385 l 0.43677,0.89954 c -0.87448,0.42462 -1.72955,0.86004 -2.56525,1.30639 z m 5.30515,-2.57629 c 0.91888,-0.40534 1.85434,-0.79846 2.80639,-1.17951 l 0.37159,0.92847 c -0.94297,0.37738 -1.86777,0.76599 -2.77442,1.16596 z m 5.70346,-2.28272 c 0.93948,-0.34021 1.89249,-0.66882 2.85904,-0.98578 l 0.31158,0.9502 c -0.95743,0.31397 -1.90081,0.63922 -2.83011,0.97577 z m 5.71118,-1.87579 c 0.95676,-0.28375 1.92474,-0.55627 2.90396,-0.81757 l 0.25781,0.96619 c -0.97003,0.25885 -1.92919,0.52893 -2.87747,0.81012 z m 5.85031,-1.56165 c 0.98294,-0.23437 1.97608,-0.45776 2.97934,-0.6701 l 0.20709,0.97827 c -0.99258,0.21008 -1.97741,0.43164 -2.95449,0.66461 z m 5.94364,-1.25909 c 0.98501,-0.18335 1.97778,-0.35577 2.9783,-0.51733 l 0.15936,0.98718 c -0.99057,0.15991 -1.97546,0.33099 -2.95468,0.5133 z m 5.96261,-0.96381 c 0.99069,-0.13653 1.98487,-0.26208 2.98245,-0.37664 l 0.11408,0.99353 c -0.9928,0.11401 -1.97946,0.23858 -2.95999,0.37372 z m 5.98264,-0.6875 c 1.01553,-0.0937 2.03366,-0.17639 3.05432,-0.24786 l 0.0699,0.99756 c -1.01461,0.0711 -2.02536,0.15308 -3.03228,0.24603 l -0.0919,-0.99573 z m 6.08273,-0.42663 c 0.99789,-0.0482 1.9964,-0.0855 2.99558,-0.11218 l 0.0267,0.99963 c -0.99347,0.0265 -1.9848,0.0636 -2.97403,0.11133 l -0.0482,-0.99878 z m 5.95297,-0.16028 0.81263,-0.002 c 0.70742,0 1.41439,0.005 2.12097,0.0159 l -0.015,0.99988 c -0.70114,-0.0106 -1.40216,-0.0158 -2.10303,-0.0158 l -0.81262,0.002 -0.003,-1 z m 5.90784,0.0897 c 1.00397,0.0363 2.0076,0.0834 3.01089,0.14136 l -0.0576,0.99829 c -0.99329,-0.0573 -1.98978,-0.10407 -2.98947,-0.14026 l 0.0362,-0.99939 z m 6.05176,0.35053 c 1.01864,0.0813 2.03424,0.17382 3.04681,0.27758 l -0.10193,0.99475 c -1.00399,-0.10284 -2.01214,-0.1947 -3.02447,-0.27551 l 0.0796,-0.99682 z m 6.02475,0.61584 c 1.00039,0.12506 1.99515,0.26086 2.98425,0.40741 l -0.14661,0.98926 c -0.98251,-0.14557 -1.96972,-0.2804 -2.96167,-0.40436 z m 5.96692,0.88513 c 0.99795,0.17194 1.98889,0.35492 2.97281,0.54901 l -0.19355,0.98108 c -0.97577,-0.19244 -1.9588,-0.37402 -2.94906,-0.54461 z m 5.94522,1.17377 c 0.99893,0.22308 1.98761,0.4574 2.966,0.70294 l -0.24347,0.96997 c -0.97156,-0.24383 -1.95172,-0.47619 -2.94049,-0.69696 z m 5.89459,1.47961 c 0.97281,0.2721 1.93356,0.55536 2.8822,0.84974 l -0.29638,0.95507 c -0.94056,-0.29187 -1.89228,-0.57245 -2.85517,-0.84179 z m 5.70843,1.77149 c 0.98514,0.33728 1.95459,0.68652 2.90842,1.04779 l -0.35419,0.93518 c -0.94467,-0.35773 -1.90405,-0.70337 -2.87814,-1.03693 z m 5.76655,2.18512 c 0.93835,0.39215 1.85937,0.7962 2.76306,1.21228 l -0.41822,0.90832 c -0.89181,-0.41058 -1.80194,-0.80987 -2.7304,-1.19787 z m 5.42086,2.49579 c 0.91629,0.46405 1.80997,0.94 2.68106,1.42779 l -0.48858,0.87256 c -0.85962,-0.48138 -1.74106,-0.95081 -2.64432,-1.40826 z m 5.37867,3.02136 c 0.87173,0.54327 1.71557,1.09851 2.53158,1.66565 l -0.57074,0.82117 c -0.80292,-0.55805 -1.63284,-1.10407 -2.48978,-1.63819 z m 4.88772,3.39599 c 0.82559,0.64142 1.61578,1.29505 2.37058,1.96082 l -0.6615,0.75 c -0.7396,-0.65234 -1.5138,-1.29272 -2.3226,-1.92114 z m 4.64481,4.11249 c 0.71133,0.72382 1.3811,1.4585 2.00934,2.20417 l -0.76478,0.64428 c -0.61184,-0.72619 -1.26443,-1.44201 -1.95776,-2.14752 z m 3.8204,4.54676 c 0.62314,0.88317 1.18814,1.7774 1.69501,2.68261 l -0.8725,0.48853 c -0.48975,-0.87464 -1.03628,-1.7395 -1.63959,-2.59461 z m 3.01856,5.37927 c 0.39959,0.94494 0.73577,1.89667 1.00857,2.85516 l -0.96179,0.27368 c -0.26151,-0.91888 -0.58411,-1.83197 -0.9678,-2.73932 z m 1.65741,5.90033 c 0.14111,0.99273 0.21423,1.98688 0.21933,2.98254 l -1,0.005 c -0.005,-0.95026 -0.0747,-1.89923 -0.20939,-2.84693 l 0.99006,-0.14074 z M -349.5,747 c 0,0.99463 -0.0679,1.98785 -0.20358,2.97961 l -0.99079,-0.13562 C -350.56479,748.89716 -350.5,747.94916 -350.5,747 Z"
       style="fill:#000000;fill-opacity:1;fill-rule:nonzero;stroke:none"
       transform="matrix(0.90253916,0,0,0.90253916,1055.7989,-265.78716)" />
    <g
       id="g55">
      <text
         id="text55"
         xml:space="preserve"
         transform="matrix(0.90253916,0,0,0.90253916,635.94894,398.93294)"><tspan
           id="tspan55"
           style="font-variant:normal;font-weight:normal;font-size:12px;font-family:Arial;writing-mode:lr-tb;fill:#000000;fill-opacity:1;fill-rule:nonzero;stroke:none"
           x="0"
           y="0">Re-Rank using</tspan></text>
    </g>
    <g
       id="g56">
      <text
         id="text56"
         xml:space="preserve"
         transform="matrix(0.90253916,0,0,0.90253916,621.19806,411.56848)"><tspan
           id="tspan56"
           style="font-variant:normal;font-weight:normal;font-size:12px;font-family:Arial;writing-mode:lr-tb;fill:#000000;fill-opacity:1;fill-rule:nonzero;stroke:none"
           x="0"
           y="0">cross-encoder model</tspan></text>
    </g>
    <g
       id="g57">
      <text
         id="text57"
         xml:space="preserve"
         transform="matrix(0.90253916,0,0,0.90253916,646.46916,425.10657)"><tspan
           id="tspan57"
           style="font-variant:normal;font-weight:normal;font-size:12px;font-family:Arial;writing-mode:lr-tb;fill:#000000;fill-opacity:1;fill-rule:nonzero;stroke:none"
           x="0"
           y="0">&lt;optional&gt;</tspan></text>
    </g>
    <path
       id="path57"
       d="m -680,441 v 49 h -102 v 105.63"
       style="fill:none;stroke:#000000;stroke-width:1;stroke-linecap:butt;stroke-linejoin:miter;stroke-miterlimit:10;stroke-dasharray:none;stroke-opacity:1"
       transform="matrix(0.90253916,0,0,0.90253916,1055.7989,-265.78716)" />
    <path
       id="path58"
       d="m -782,600.88 -3.5,-7 3.5,1.75 3.5,-1.75 z"
       style="fill:#000000;fill-opacity:1;fill-rule:nonzero;stroke:#000000;stroke-width:1;stroke-linecap:butt;stroke-linejoin:miter;stroke-miterlimit:10;stroke-dasharray:none;stroke-opacity:1"
       transform="matrix(0.90253916,0,0,0.90253916,1055.7989,-265.78716)" />
    <g
       id="g58">
      <path
         id="path59"
         d="m -831,526 h 147 v 13 h -147 z"
         style="fill:#ffffff;fill-opacity:1;fill-rule:nonzero;stroke:none"
         transform="matrix(0.90253916,0,0,0.90253916,1055.3476,-266.23843)" />
    </g>
    <g
       id="g59">
      <text
         id="text59"
         xml:space="preserve"
         transform="matrix(0.90253916,0,0,0.90253916,305.5914,217.52256)"><tspan
           id="tspan59"
           style="font-variant:normal;font-weight:normal;font-size:11px;font-family:Arial;writing-mode:lr-tb;fill:#000000;fill-opacity:1;fill-rule:nonzero;stroke:none"
           x="0"
           dx="0 0 0 0 0 0 0 0 0 -0.60693383"
           y="0">Ttitle + Abstract per document</tspan></text>
    </g>
    <path
       id="path60"
       d="m -490,633 20,-83 h 200 l -20,83 z"
       style="fill:#ffffff;fill-opacity:1;fill-rule:nonzero;stroke:#000000;stroke-width:1;stroke-linecap:butt;stroke-linejoin:miter;stroke-miterlimit:10;stroke-dasharray:none;stroke-opacity:1"
       transform="matrix(0.90253916,0,0,0.90253916,1055.7989,-265.78716)" />
    <g
       id="g60">
      <text
         id="text60"
         xml:space="preserve"
         transform="matrix(0.90253916,0,0,0.90253916,640.15138,246.40382)"><tspan
           id="tspan60"
           style="font-variant:normal;font-weight:normal;font-size:12px;font-family:Arial;writing-mode:lr-tb;fill:#000000;fill-opacity:1;fill-rule:nonzero;stroke:none"
           x="0"
           y="0">Mean Reciprocal Rank (MRR)</tspan></text>
    </g>
    <g
       id="g61">
      <text
         id="text61"
         xml:space="preserve"
         transform="matrix(0.90253916,0,0,0.90253916,686.11037,259.03937)"><tspan
           id="tspan61"
           style="font-variant:normal;font-weight:normal;font-size:12px;font-family:Arial;writing-mode:lr-tb;fill:#000000;fill-opacity:1;fill-rule:nonzero;stroke:none"
           x="0"
           y="0">nDCG @ k</tspan></text>
    </g>
    <g
       id="g62">
      <text
         id="text62"
         xml:space="preserve"
         transform="matrix(0.90253916,0,0,0.90253916,678.89005,271.67491)"><tspan
           id="tspan62"
           style="font-variant:normal;font-weight:normal;font-size:12px;font-family:Arial;writing-mode:lr-tb;fill:#000000;fill-opacity:1;fill-rule:nonzero;stroke:none"
           x="0"
           y="0">Precision @ k</tspan></text>
    </g>
    <g
       id="g63">
      <text
         id="text63"
         xml:space="preserve"
         transform="matrix(0.90253916,0,0,0.90253916,686.11037,285.213)"><tspan
           id="tspan63"
           style="font-variant:normal;font-weight:normal;font-size:12px;font-family:Arial;writing-mode:lr-tb;fill:#000000;fill-opacity:1;fill-rule:nonzero;stroke:none"
           x="0"
           y="0">Recall @ k</tspan></text>
    </g>
    <g
       id="g64">
      <text
         id="text64"
         xml:space="preserve"
         transform="matrix(0.90253916,0,0,0.90253916,707.85592,297.84855)"><tspan
           id="tspan64"
           style="font-variant:normal;font-weight:normal;font-size:12px;font-family:Arial;writing-mode:lr-tb;fill:#000000;fill-opacity:1;fill-rule:nonzero;stroke:none"
           x="0"
           y="0">...</tspan></text>
    </g>
    <path
       id="path64"
       d="m -270,622.5 c 0,0.57318 -0.0562,1.14496 -0.16855,1.71533 -0.11233,0.57038 -0.2803,1.13666 -0.50394,1.69873 -0.22363,0.5622 -0.50183,1.1175 -0.83459,1.66596 -0.33273,0.5484 -0.71841,1.0874 -1.15707,1.61688 -0.43869,0.52954 -0.92823,1.04706 -1.4686,1.55249 -0.54038,0.50549 -1.12897,0.99652 -1.76578,1.47302 -0.63687,0.47656 -1.31891,0.9364 -2.04611,1.37946 -0.7272,0.44305 -1.49606,0.86719 -2.30661,1.27246 -0.81055,0.40527 -1.65888,0.78973 -2.54498,1.15332 -0.88608,0.36359 -1.8057,0.70453 -2.75879,1.02295 -0.9531,0.31842 -1.93512,0.61273 -2.94608,0.88293 -1.01092,0.27021 -2.0459,0.51496 -3.10495,0.73426 -1.05905,0.21936 -2.13705,0.41223 -3.23398,0.57861 -1.09689,0.16638 -2.20749,0.30548 -3.33175,0.41724 -1.12427,0.11187 -2.25681,0.19586 -3.39759,0.25207 -1.14077,0.0562 -2.28433,0.0843 -3.43063,0.0843 -1.1463,0 -2.28983,-0.0281 -3.4306,-0.0843 -1.14078,-0.0562 -2.27329,-0.1402 -3.39756,-0.25207 -1.12426,-0.11176 -2.23486,-0.25086 -3.33181,-0.41724 -1.09696,-0.16638 -2.17493,-0.35925 -3.23392,-0.57861 -1.05905,-0.2193 -2.09403,-0.46405 -3.10498,-0.73426 -1.01093,-0.2702 -1.99295,-0.56451 -2.94608,-0.88293 -0.95312,-0.31842 -1.87274,-0.65936 -2.75882,-1.02295 -0.88607,-0.36359 -1.7344,-0.74805 -2.54495,-1.15332 -0.81058,-0.40527 -1.57944,-0.82941 -2.30664,-1.27246 -0.7272,-0.44306 -1.40924,-0.9029 -2.04608,-1.37946 -0.63684,-0.4765 -1.22543,-0.96753 -1.76578,-1.47302 -0.54034,-0.50543 -1.02984,-1.02295 -1.46853,-1.55249 -0.43869,-0.52948 -0.82441,-1.06848 -1.15717,-1.61688 -0.33273,-0.54846 -0.61093,-1.10376 -0.83456,-1.66596 -0.22367,-0.56207 -0.39167,-1.12835 -0.504,-1.69873 C -339.94382,623.64496 -340,623.07318 -340,622.5 c 0,-0.57318 0.0562,-1.1449 0.16852,-1.71527 0.11233,-0.57037 0.28033,-1.13672 0.504,-1.69891 0.22363,-0.56208 0.50183,-1.11738 0.83456,-1.66584 0.33276,-0.54852 0.71848,-1.08752 1.15717,-1.617 0.43869,-0.52948 0.92819,-1.047 1.46853,-1.55249 0.54035,-0.50549 1.12894,-0.99652 1.76578,-1.47309 0.63684,-0.4765 1.31888,-0.93627 2.04608,-1.37939 0.7272,-0.44299 1.49606,-0.86713 2.30664,-1.27246 0.81055,-0.40521 1.65888,-0.78967 2.54495,-1.15326 0.88608,-0.36359 1.8057,-0.70465 2.75882,-1.02307 0.95313,-0.31842 1.93515,-0.61267 2.94608,-0.88287 1.01095,-0.27021 2.04593,-0.51496 3.10498,-0.73432 1.05899,-0.2193 2.13696,-0.41217 3.23392,-0.57849 1.09695,-0.16632 2.20755,-0.30542 3.33181,-0.4173 1.12427,-0.11175 2.25678,-0.19574 3.39756,-0.25195 1.14077,-0.0562 2.2843,-0.0843 3.4306,-0.0843 1.1463,0 2.28986,0.0281 3.43063,0.0843 1.14078,0.0562 2.27332,0.1402 3.39759,0.25195 1.12426,0.11188 2.23486,0.25098 3.33175,0.4173 1.09693,0.16632 2.17493,0.35919 3.23398,0.57849 1.05905,0.21936 2.09403,0.46411 3.10495,0.73432 1.01096,0.2702 1.99298,0.56445 2.94608,0.88287 0.95309,0.31842 1.87271,0.65948 2.75882,1.02307 0.88607,0.36359 1.7344,0.74805 2.54495,1.15326 0.81055,0.40533 1.57941,0.82947 2.30661,1.27246 0.7272,0.44312 1.40921,0.90289 2.04608,1.37939 0.63684,0.47657 1.22543,0.9676 1.76581,1.47309 0.54037,0.50549 1.02991,1.02301 1.4686,1.55249 0.43866,0.52948 0.82434,1.06848 1.15707,1.617 0.33276,0.54846 0.61096,1.10376 0.83459,1.66584 0.22364,0.56219 0.39161,1.12854 0.50394,1.69891 0.11237,0.57037 0.16855,1.14209 0.16855,1.71527 z"
       style="fill:#ffffff;fill-opacity:1;fill-rule:nonzero;stroke:#000000;stroke-width:1;stroke-linecap:butt;stroke-linejoin:miter;stroke-miterlimit:10;stroke-dasharray:none;stroke-opacity:1"
       transform="matrix(0.90253916,0,0,0.90253916,1055.7989,-265.78716)" />
    <g
       id="g65">
      <text
         id="text65"
         xml:space="preserve"
         transform="matrix(0.90253916,0,0,0.90253916,752.68674,299.65363)"><tspan
           id="tspan65"
           style="font-variant:normal;font-weight:700;font-size:12px;font-family:Arial;writing-mode:lr-tb;fill:#000000;fill-opacity:1;fill-rule:nonzero;stroke:none"
           x="0"
           y="0">Evaluation</tspan></text>
    </g>
    <path
       id="path65"
       d="m -1140,383 v -23 h 290 v 23"
       style="fill:#ffffff;fill-opacity:1;fill-rule:nonzero;stroke:#000000;stroke-width:1;stroke-linecap:butt;stroke-linejoin:miter;stroke-miterlimit:10;stroke-dasharray:none;stroke-opacity:1"
       transform="matrix(0.90253916,0,0,0.90253916,1055.7989,-265.78716)" />
    <path
       id="path66"
       d="m -1140,383 v 187 h 290 V 383"
       style="fill:none;stroke:#000000;stroke-width:1;stroke-linecap:butt;stroke-linejoin:miter;stroke-miterlimit:10;stroke-dasharray:none;stroke-opacity:1"
       transform="matrix(0.90253916,0,0,0.90253916,1055.7989,-265.78716)" />
    <path
       id="path67"
       d="m -1140,383 h 290"
       style="fill:none;stroke:#000000;stroke-width:1;stroke-linecap:butt;stroke-linejoin:miter;stroke-miterlimit:10;stroke-dasharray:none;stroke-opacity:1"
       transform="matrix(0.90253916,0,0,0.90253916,1055.7989,-265.78716)" />
    <g
       id="g67">
      <text
         id="text67"
         xml:space="preserve"
         transform="matrix(0.90253916,0,0,0.90253916,128.14373,73.116298)"><tspan
           id="tspan67"
           style="font-variant:normal;font-weight:700;font-size:12px;font-family:Arial;writing-mode:lr-tb;fill:#000000;fill-opacity:1;fill-rule:nonzero;stroke:none"
           x="0"
           y="0">Fine tuning</tspan></text>
    </g>
    <path
       id="path68"
       d="m -1110,411.5 h 89.6 l 20,17.5 -20,17.5 h -89.6 l -20,-17.5 z"
       style="fill:#ffffff;fill-opacity:1;fill-rule:nonzero;stroke:#000000;stroke-width:1;stroke-linecap:butt;stroke-linejoin:miter;stroke-miterlimit:10;stroke-dasharray:none;stroke-opacity:1"
       transform="matrix(0.90253916,0,0,0.90253916,1055.7989,-265.78716)" />
    <g
       id="g68">
      <text
         id="text68"
         xml:space="preserve"
         transform="matrix(0.90253916,0,0,0.90253916,50.483064,124.56103)"><tspan
           id="tspan68"
           style="font-variant:normal;font-weight:normal;font-size:12px;font-family:Arial;writing-mode:lr-tb;fill:#000000;fill-opacity:1;fill-rule:nonzero;stroke:none"
           x="0"
           y="0">Embedding Model</tspan></text>
    </g>
    <path
       id="path69"
       d="m -1110,481.5 h 95 l 20,21.25 -20,21.25 h -95 l -20,-21.25 z"
       style="fill:#ffffff;fill-opacity:1;fill-rule:nonzero;stroke:#000000;stroke-width:1;stroke-linecap:butt;stroke-linejoin:miter;stroke-miterlimit:10;stroke-dasharray:none;stroke-opacity:1"
       transform="matrix(0.90253916,0,0,0.90253916,1055.7989,-265.78716)" />
    <g
       id="g69">
      <text
         id="text69"
         xml:space="preserve"
         transform="matrix(0.90253916,0,0,0.90253916,60.269973,185.03115)"><tspan
           id="tspan69"
           style="font-variant:normal;font-weight:normal;font-size:12px;font-family:Arial;writing-mode:lr-tb;fill:#000000;fill-opacity:1;fill-rule:nonzero;stroke:none"
           x="0"
           y="0">Cross-Encoder</tspan></text>
    </g>
    <g
       id="g70">
      <text
         id="text70"
         xml:space="preserve"
         transform="matrix(0.90253916,0,0,0.90253916,51.540723,198.56924)"><tspan
           id="tspan70"
           style="font-variant:normal;font-weight:normal;font-size:12px;font-family:Arial;writing-mode:lr-tb;fill:#000000;fill-opacity:1;fill-rule:nonzero;stroke:none"
           x="0"
           y="0">Re-Ranking Model</tspan></text>
    </g>
    <path
       id="path70"
       d="m -859.9975,502.75 c 0,1.10538 -0.0876,2.2081 -0.26269,3.30811 -0.17517,1.1 -0.43701,2.19207 -0.78559,3.27615 -0.34869,1.08411 -0.78235,2.15503 -1.30108,3.2128 -0.51874,1.05774 -1.12,2.09723 -1.80384,3.11841 -0.68389,1.02124 -1.44702,2.01928 -2.28942,2.99414 -0.84235,0.97485 -1.75995,1.92181 -2.75269,2.84082 -0.9928,0.91906 -2.05603,1.80584 -3.18976,2.66034 -1.13367,0.85449 -2.33227,1.67248 -3.59582,2.45404 -1.26361,0.78161 -2.58606,1.52307 -3.96747,2.2243 -1.38141,0.70123 -2.81494,1.35883 -4.30072,1.9729 -1.48584,0.6142 -3.01679,1.18176 -4.59278,1.70282 -1.57598,0.52106 -3.18945,0.99304 -4.84039,1.41602 -1.65094,0.42303 -3.33148,0.79498 -5.04156,1.11584 -1.71003,0.32086 -3.44135,0.58917 -5.19397,0.80481 -1.75275,0.21564 -3.51825,0.37769 -5.29663,0.48602 -1.77845,0.10834 -3.56116,0.16248 -5.34809,0.16248 -1.78705,0 -3.5697,-0.0541 -5.34808,-0.16248 -1.77838,-0.10833 -3.54382,-0.27038 -5.29639,-0.48602 -1.75274,-0.21564 -3.48407,-0.48395 -5.19409,-0.80481 -1.71002,-0.32086 -3.3905,-0.69281 -5.04144,-1.11584 -1.65106,-0.42298 -3.26453,-0.89496 -4.84046,-1.41602 -1.57599,-0.52106 -3.10687,-1.08862 -4.59265,-1.70282 -1.4859,-0.61407 -2.91955,-1.27167 -4.3009,-1.9729 -1.38141,-0.70123 -2.70392,-1.44269 -3.96747,-2.2243 -1.26361,-0.78156 -2.46222,-1.59955 -3.59582,-2.45404 -1.13361,-0.85443 -2.19684,-1.74121 -3.18964,-2.66028 -0.99286,-0.91901 -1.91046,-1.86597 -2.75281,-2.84088 -0.84234,-0.97486 -1.60547,-1.9729 -2.28931,-2.99414 -0.68389,-1.02118 -1.28515,-2.06067 -1.80389,-3.11841 -0.51874,-1.05777 -0.95245,-2.12869 -1.30102,-3.2128 -0.3487,-1.08408 -0.6106,-2.17615 -0.78577,-3.27615 -0.17523,-1.10001 -0.26282,-2.20273 -0.26276,-3.30811 -6e-5,-1.10535 0.0875,-2.20804 0.26276,-3.30807 0.17517,-1.10001 0.43707,-2.19211 0.78577,-3.27625 0.34857,-1.08411 0.78228,-2.15503 1.30102,-3.2128 0.51874,-1.05777 1.12,-2.09726 1.80389,-3.11853 0.68384,-1.02118 1.4469,-2.01919 2.28925,-2.99405 0.84241,-0.97482 1.76001,-1.92178 2.75287,-2.84088 0.9928,-0.91904 2.05597,-1.80576 3.18957,-2.66022 1.13367,-0.85446 2.33228,-1.67251 3.59589,-2.4541 1.26355,-0.78158 2.58606,-1.52301 3.96747,-2.22424 1.38135,-0.7012 2.815,-1.35889 4.3009,-1.97299 1.48578,-0.61411 3.01666,-1.18167 4.59265,-1.7027 1.57593,-0.52106 3.1894,-0.9931 4.84046,-1.41614 1.65094,-0.42294 3.33136,-0.79486 5.04138,-1.11575 1.71002,-0.32083 3.44141,-0.58911 5.19409,-0.80478 1.75256,-0.21561 3.51807,-0.3776 5.29645,-0.48593 1.77838,-0.10837 3.56103,-0.16254 5.34808,-0.16257 1.78693,3e-5 3.56964,0.0542 5.34809,0.16257 1.77838,0.10833 3.54388,0.27032 5.29663,0.48593 1.75262,0.21567 3.48394,0.48395 5.19397,0.80481 1.71008,0.32086 3.39062,0.69278 5.04156,1.11575 1.65094,0.42301 3.26441,0.89505 4.84039,1.41611 1.57599,0.52106 3.10694,1.08862 4.59278,1.7027 1.48578,0.6141 2.91931,1.27179 4.30066,1.97299 1.38141,0.70123 2.70392,1.44266 3.96753,2.22424 1.26355,0.78159 2.46215,1.59964 3.59582,2.4541 1.13373,0.85446 2.19696,1.74118 3.18976,2.66022 0.99274,0.9191 1.91034,1.86606 2.75275,2.84091 0.84234,0.97483 1.60547,1.97284 2.28936,2.99402 0.68384,1.02127 1.2851,2.06076 1.80378,3.1185 0.51873,1.05777 0.95245,2.12872 1.30114,3.2128 0.34858,1.08414 0.61042,2.17624 0.78559,3.27631 0.17511,1.1 0.26269,2.20269 0.26269,3.30804 z"
       style="fill:#ffffff;fill-opacity:1;fill-rule:nonzero;stroke:#000000;stroke-width:1;stroke-linecap:butt;stroke-linejoin:miter;stroke-miterlimit:10;stroke-dasharray:none;stroke-opacity:1"
       transform="matrix(0.90253916,0,0,0.90253916,1055.7989,-265.78716)" />
    <g
       id="g71">
      <text
         id="text71"
         xml:space="preserve"
         transform="matrix(0.90253916,0,0,0.90253916,185.72292,185.03115)"><tspan
           id="tspan71"
           style="font-variant:normal;font-weight:normal;font-size:12px;font-family:Arial;writing-mode:lr-tb;fill:#000000;fill-opacity:1;fill-rule:nonzero;stroke:none"
           x="0"
           y="0">Multiple Negatives</tspan></text>
      <text
         id="text72"
         xml:space="preserve"
         transform="matrix(0.90253916,0,0,0.90253916,197.15978,198.56924)"><tspan
           id="tspan72"
           style="font-variant:normal;font-weight:normal;font-size:12px;font-family:Arial;writing-mode:lr-tb;fill:#000000;fill-opacity:1;fill-rule:nonzero;stroke:none"
           x="0"
           y="0">Ranking Loss</tspan></text>
    </g>
    <path
       id="path72"
       d="m -988.63,502.75 h 13.14001"
       style="fill:none;stroke:#000000;stroke-width:1;stroke-linecap:butt;stroke-linejoin:miter;stroke-miterlimit:10;stroke-dasharray:none;stroke-opacity:1"
       transform="matrix(0.90253916,0,0,0.90253916,1055.7989,-265.78716)" />
    <path
       id="path73"
       d="m -993.88,502.75 7,-3.5 -1.75,3.5 1.75,3.5 z"
       style="fill:#000000;fill-opacity:1;fill-rule:nonzero;stroke:#000000;stroke-width:1;stroke-linecap:butt;stroke-linejoin:miter;stroke-miterlimit:10;stroke-dasharray:none;stroke-opacity:1"
       transform="matrix(0.90253916,0,0,0.90253916,1055.7989,-265.78716)" />
    <path
       id="path74"
       d="m -970.23999,502.75 -7,3.5 1.75,-3.5 -1.75,-3.5 z"
       style="fill:#000000;fill-opacity:1;fill-rule:nonzero;stroke:#000000;stroke-width:1;stroke-linecap:butt;stroke-linejoin:miter;stroke-miterlimit:10;stroke-dasharray:none;stroke-opacity:1"
       transform="matrix(0.90253916,0,0,0.90253916,1055.7989,-265.78716)" />
    <path
       id="path75"
       d="m -994.03003,429 h 18.54004"
       style="fill:none;stroke:#000000;stroke-width:1;stroke-linecap:butt;stroke-linejoin:miter;stroke-miterlimit:10;stroke-dasharray:none;stroke-opacity:1"
       transform="matrix(0.90253916,0,0,0.90253916,1055.7989,-265.78716)" />
    <path
       id="path76"
       d="m -999.28003,429 7,-3.5 -1.75,3.5 1.75,3.5 z"
       style="fill:#000000;fill-opacity:1;fill-rule:nonzero;stroke:#000000;stroke-width:1;stroke-linecap:butt;stroke-linejoin:miter;stroke-miterlimit:10;stroke-dasharray:none;stroke-opacity:1"
       transform="matrix(0.90253916,0,0,0.90253916,1055.7989,-265.78716)" />
    <path
       id="path77"
       d="m -970.23999,429 -7,3.5 1.75,-3.5 -1.75,-3.5 z"
       style="fill:#000000;fill-opacity:1;fill-rule:nonzero;stroke:#000000;stroke-width:1;stroke-linecap:butt;stroke-linejoin:miter;stroke-miterlimit:10;stroke-dasharray:none;stroke-opacity:1"
       transform="matrix(0.90253916,0,0,0.90253916,1055.7989,-265.78716)" />
    <path
       id="path78"
       d="m -859.9975,429 c 0,1.10538 -0.0876,2.20807 -0.26269,3.30807 -0.17517,1.10001 -0.43701,2.19208 -0.78559,3.27619 -0.34869,1.08414 -0.78235,2.15506 -1.30108,3.2128 -0.51874,1.05774 -1.12,2.09723 -1.80384,3.11844 -0.68389,1.02121 -1.44702,2.01925 -2.28942,2.99408 -0.84235,0.97485 -1.75995,1.92181 -2.75269,2.84085 -0.9928,0.91906 -2.05603,1.80584 -3.18976,2.66031 -1.13367,0.85446 -2.33227,1.67248 -3.59582,2.45407 -1.26361,0.78161 -2.58606,1.52304 -3.96747,2.22424 -1.38141,0.70123 -2.81494,1.35889 -4.30072,1.97299 -1.48584,0.61411 -3.01679,1.1817 -4.59278,1.70276 -1.57598,0.52106 -3.18945,0.99307 -4.84039,1.41608 -1.65094,0.423 -3.33148,0.79495 -5.04156,1.11581 -1.71003,0.32089 -3.44135,0.58914 -5.19397,0.80478 -1.75275,0.21567 -3.51825,0.37766 -5.29663,0.48602 -1.77845,0.10834 -3.56116,0.16251 -5.34809,0.16251 -1.78705,0 -3.5697,-0.0542 -5.34808,-0.16251 -1.77838,-0.10836 -3.54382,-0.27035 -5.29639,-0.48602 -1.75274,-0.21564 -3.48407,-0.48389 -5.19409,-0.80475 -1.71002,-0.32089 -3.3905,-0.69284 -5.04144,-1.11584 -1.65106,-0.42301 -3.26453,-0.89502 -4.84046,-1.41611 -1.57599,-0.52103 -3.10687,-1.08862 -4.59265,-1.70273 -1.4859,-0.6141 -2.91955,-1.27176 -4.3009,-1.97299 -1.38141,-0.7012 -2.70392,-1.44263 -3.96747,-2.22424 -1.26361,-0.78159 -2.46222,-1.59961 -3.59582,-2.45407 -1.13361,-0.85447 -2.19684,-1.74125 -3.18964,-2.66031 -0.99286,-0.91904 -1.91046,-1.866 -2.75281,-2.84085 -0.84234,-0.97483 -1.60547,-1.97287 -2.28931,-2.99408 -0.68389,-1.02121 -1.28515,-2.0607 -1.80389,-3.11844 -0.51874,-1.05774 -0.95245,-2.12866 -1.30102,-3.2128 -0.3487,-1.08411 -0.6106,-2.17618 -0.78577,-3.27619 -0.17523,-1.1 -0.26282,-2.20269 -0.26276,-3.30807 -6e-5,-1.10538 0.0875,-2.20807 0.26276,-3.30811 0.17517,-1.10003 0.43707,-2.1921 0.78577,-3.27624 0.34857,-1.08411 0.78228,-2.15503 1.30102,-3.21277 0.51874,-1.05777 1.12,-2.09726 1.80389,-3.1185 0.68384,-1.02121 1.4469,-2.01926 2.28925,-2.99408 0.84241,-0.97482 1.76001,-1.92175 2.75287,-2.84085 0.9928,-0.91904 2.05597,-1.80579 3.18957,-2.66022 1.13367,-0.85446 2.33228,-1.67248 3.59589,-2.4541 1.26355,-0.78158 2.58606,-1.52301 3.96747,-2.22421 1.38135,-0.70123 2.815,-1.35892 4.3009,-1.97302 1.48578,-0.61408 3.01666,-1.18164 4.59265,-1.70273 1.57593,-0.52109 3.1894,-0.99314 4.84046,-1.41614 1.65094,-0.42297 3.33136,-0.79489 5.04138,-1.11578 1.71002,-0.32083 3.44141,-0.58908 5.19409,-0.80475 1.75256,-0.21564 3.51807,-0.37763 5.29645,-0.48596 1.77838,-0.10834 3.56103,-0.16251 5.34808,-0.16254 1.78693,3e-5 3.56964,0.0542 5.34809,0.16254 1.77838,0.10833 3.54388,0.27032 5.29663,0.48596 1.75262,0.21567 3.48394,0.48392 5.19397,0.80475 1.71008,0.32089 3.39062,0.69281 5.04156,1.11578 1.65094,0.423 3.26441,0.89505 4.84039,1.41611 1.57599,0.52109 3.10694,1.08865 4.59278,1.70273 1.48578,0.6141 2.91931,1.27179 4.30066,1.97305 1.38141,0.7012 2.70392,1.44263 3.96753,2.22421 1.26355,0.78162 2.46215,1.59964 3.59582,2.45407 1.13373,0.85446 2.19696,1.74121 3.18976,2.66025 0.99274,0.9191 1.91034,1.86609 2.75275,2.84091 0.84234,0.97483 1.60547,1.97284 2.28936,2.99405 0.68384,1.02124 1.2851,2.06073 1.80378,3.11847 0.51873,1.05774 0.95245,2.12866 1.30114,3.21277 0.34858,1.08414 0.61042,2.17621 0.78559,3.27628 0.17511,1.1 0.26269,2.20269 0.26269,3.30807 z"
       style="fill:#ffffff;fill-opacity:1;fill-rule:nonzero;stroke:#000000;stroke-width:1;stroke-linecap:butt;stroke-linejoin:miter;stroke-miterlimit:10;stroke-dasharray:none;stroke-opacity:1"
       transform="matrix(0.90253916,0,0,0.90253916,1055.7989,-265.78716)" />
    <g
       id="g78">
      <text
         id="text78"
         xml:space="preserve"
         transform="matrix(0.90253916,0,0,0.90253916,185.72292,118.24326)"><tspan
           id="tspan78"
           style="font-variant:normal;font-weight:normal;font-size:12px;font-family:Arial;writing-mode:lr-tb;fill:#000000;fill-opacity:1;fill-rule:nonzero;stroke:none"
           x="0"
           y="0">Multiple Negatives</tspan></text>
      <text
         id="text79"
         xml:space="preserve"
         transform="matrix(0.90253916,0,0,0.90253916,197.15978,131.78134)"><tspan
           id="tspan79"
           style="font-variant:normal;font-weight:normal;font-size:12px;font-family:Arial;writing-mode:lr-tb;fill:#000000;fill-opacity:1;fill-rule:nonzero;stroke:none"
           x="0"
           y="0">Ranking Loss</tspan></text>
    </g>
    <path
       id="path79"
       d="m -990,640.5 h 10.5 l -15.5,19 -15.5,-19 h 10.5 V 615 589.5 h -10.5 l 15.5,-19 15.5,19 H -990 V 615 Z"
       style="fill:none;stroke:#000000;stroke-width:1;stroke-linecap:butt;stroke-linejoin:miter;stroke-miterlimit:10;stroke-dasharray:none;stroke-opacity:1"
       transform="matrix(0.90253916,0,0,0.90253916,1055.7989,-265.78716)" />
    <path
       id="path80"
       d="m -990,640.5 h 10.5 l -15.5,19 -15.5,-19 h 10.5"
       style="fill:none;stroke:#000000;stroke-width:1;stroke-linecap:butt;stroke-linejoin:miter;stroke-miterlimit:10;stroke-dasharray:none;stroke-opacity:1"
       transform="matrix(0.90253916,0,0,0.90253916,1055.7989,-265.78716)" />
    <path
       id="path81"
       d="m -1000,589.5 h -10.5 l 15.5,-19 15.5,19 H -990"
       style="fill:none;stroke:#000000;stroke-width:1;stroke-linecap:butt;stroke-linejoin:miter;stroke-miterlimit:10;stroke-dasharray:none;stroke-opacity:1"
       transform="matrix(0.90253916,0,0,0.90253916,1055.7989,-265.78716)" />
    <path
       id="path82"
       d="m -789,426 h -54.63"
       style="fill:none;stroke:#000000;stroke-width:1;stroke-linecap:butt;stroke-linejoin:miter;stroke-miterlimit:10;stroke-dasharray:none;stroke-opacity:1"
       transform="matrix(0.90253916,0,0,0.90253916,1055.7989,-265.78716)" />
    <path
       id="path83"
       d="m -848.88,426 7,-3.5 -1.75,3.5 1.75,3.5 z"
       style="fill:#000000;fill-opacity:1;fill-rule:nonzero;stroke:#000000;stroke-width:1;stroke-linecap:butt;stroke-linejoin:miter;stroke-miterlimit:10;stroke-dasharray:none;stroke-opacity:1"
       transform="matrix(0.90253916,0,0,0.90253916,1055.7989,-265.78716)" />
  </g>
</svg>
